<?xml version="1.0" encoding="UTF-8"?> <svg xmlns="http://www.w3.org/2000/svg" width="632" height="250" viewBox="0 0 632 250" fill="none"><g clip-path="url(#clip0_1325_2)"><path d="M147.42 23.895C147.42 32.0421 143.959 40.1892 139.067 46.0608C133.877 52.5689 124.895 57.4062 117.754 57.4062C116.936 57.4062 116.118 57.2948 115.615 57.1994C115.52 56.8016 115.316 55.5604 115.316 54.3193C115.316 46.0608 119.5 37.9137 123.983 32.7581C129.693 26.0591 139.162 20.999 147.121 20.6967C147.325 21.6196 147.42 22.7652 147.42 23.895Z" fill="#B751FF"></path><path d="M48.3356 5.40625C48.3356 18.0533 53.7217 30.7004 61.3358 39.8152C69.415 49.918 83.3945 57.4272 94.5095 57.4272C95.7826 57.4272 97.0557 57.2543 97.8392 57.1061C97.9861 56.4886 98.3043 54.5619 98.3043 52.6352C98.3043 39.8152 91.792 27.1681 84.8145 19.1649C75.9273 8.76563 61.1889 0.910609 48.8008 0.441284C48.4825 1.87396 48.3356 3.65246 48.3356 5.40625Z" fill="#52487E"></path><path d="M155.058 63.0137C184.416 64.7724 213.18 90.1058 213.18 136.402C213.18 166.34 201.747 197.883 187.596 218.188C175.379 235.479 164.754 249.559 149.526 249.559C147.897 249.559 146.367 249.443 144.909 249.238C136.886 249.237 131.734 246.97 126.398 244.622C121.073 242.278 115.565 239.854 106.835 239.52C98.1063 239.854 92.5977 242.278 87.273 244.622C81.9367 246.97 76.7852 249.237 68.7618 249.238C67.304 249.443 65.7735 249.559 64.1449 249.559C48.9168 249.559 38.2914 235.479 26.0747 218.188C11.9238 197.883 0.490479 166.34 0.490479 136.402C0.490479 90.1058 29.255 64.7724 58.613 63.0137C63.1153 62.3287 66.7311 62.2732 68.7827 62.2732C79.4572 62.2732 89.0124 66.0929 97.0427 69.3029C100.622 70.7337 103.898 72.0433 106.835 72.8398C109.773 72.0433 113.049 70.7337 116.628 69.3029C124.658 66.0929 134.214 62.2732 144.888 62.2732C146.94 62.2732 150.556 62.3287 155.058 63.0137Z" fill="#52487E"></path><path d="M197.186 131.568C197.186 85.2715 184.416 64.7724 155.058 63.0137C150.556 62.3287 146.94 62.2732 144.888 62.2732C134.214 62.2732 124.659 66.0929 116.628 69.3029C113.049 70.7337 109.773 72.0433 106.836 72.8398C103.898 72.0433 100.622 70.7337 97.0428 69.3029C89.0125 66.0929 79.4573 62.2732 68.7828 62.2732C66.7312 62.2732 63.1154 62.3287 58.6131 63.0137C41.3402 64.0485 24.2728 73.2438 13.1482 90.0678C30.5009 95.8328 43.0193 112.234 43.0193 131.567C43.0193 153.431 27.01 171.545 6.10437 174.767C10.7896 191.313 17.9885 206.585 26.0748 218.188C38.2915 235.479 48.9169 249.559 64.145 249.559C65.7736 249.559 67.3042 249.443 68.762 249.238C76.7852 249.237 81.9367 246.97 87.273 244.622C92.5976 242.278 98.1064 239.854 106.836 239.52C115.565 239.854 121.073 242.278 126.398 244.621C131.734 246.97 136.886 249.237 144.909 249.238C146.367 249.443 147.897 249.559 149.526 249.559C156.511 249.559 147.596 232.417 137.077 212.19C124.664 188.32 110.015 160.152 116.628 150.792C123.12 141.478 140.609 142.964 157.639 144.411C177.732 146.118 197.186 147.772 197.186 131.568Z" fill="#B751FF"></path><path d="M293.526 94.9248C288.356 94.9248 284.608 93.7622 282.281 91.4368C280.084 89.1115 278.985 86.1403 278.985 82.5231V78.6476C278.985 75.0304 280.084 72.0592 282.281 69.7338C284.608 67.4085 288.356 66.2458 293.526 66.2458C298.568 66.2458 302.251 67.4085 304.578 69.7338C306.905 72.0592 308.068 75.0304 308.068 78.6476V82.5231C308.068 86.1403 306.905 89.1115 304.578 91.4368C302.251 93.7622 298.568 94.9248 293.526 94.9248ZM281.118 109.652H305.935V160.228V210.803H281.118V109.652Z" fill="#B751FF"></path><path d="M409.196 75.5471V172.823C409.196 178.895 408.162 184.385 406.094 189.294C404.155 194.203 401.311 198.402 397.563 201.89C393.943 205.378 389.484 208.09 384.184 210.028C378.885 211.966 372.939 212.935 366.347 212.935C353.808 212.935 344.049 209.705 337.069 203.246C330.089 196.658 325.63 187.938 323.691 177.086L347.346 172.242C348.509 178.055 350.577 182.577 353.55 185.806C356.652 188.907 360.853 190.457 366.153 190.457C371.194 190.457 375.33 188.907 378.561 185.806C381.922 182.577 383.603 177.668 383.603 171.079V96.475H340.947V75.5471H409.196Z" fill="#52487E"></path><path d="M478.786 213.129C471.548 213.129 465.02 211.901 459.204 209.447C453.516 206.992 448.605 203.44 444.468 198.789C440.461 194.139 437.359 188.584 435.162 182.124C432.964 175.536 431.866 168.172 431.866 160.034C431.866 151.895 432.964 144.596 435.162 138.137C437.359 131.678 440.461 126.187 444.468 121.666C448.605 117.015 453.516 113.463 459.204 111.008C465.02 108.554 471.548 107.327 478.786 107.327C486.025 107.327 492.552 108.554 498.369 111.008C504.186 113.463 509.098 117.015 513.105 121.666C517.241 126.187 520.408 131.678 522.605 138.137C524.802 144.596 525.901 151.895 525.901 160.034C525.901 168.172 524.802 175.536 522.605 182.124C520.408 188.584 517.241 194.139 513.105 198.789C509.098 203.44 504.186 206.992 498.369 209.447C492.552 211.901 486.025 213.129 478.786 213.129ZM478.786 193.17C485.379 193.17 490.549 191.167 494.297 187.163C498.046 183.158 499.92 177.28 499.92 169.529V150.733C499.92 143.111 498.046 137.297 494.297 133.293C490.549 129.288 485.379 127.286 478.786 127.286C472.323 127.286 467.218 129.288 463.469 133.293C459.721 137.297 457.847 143.111 457.847 150.733V169.529C457.847 177.28 459.721 183.158 463.469 187.163C467.218 191.167 472.323 193.17 478.786 193.17Z" fill="#52487E"></path><path d="M608.243 109.652H631.51L590.793 228.825C589.5 232.442 588.014 235.542 586.334 238.126C584.783 240.839 582.908 243.035 580.711 244.714C578.513 246.394 575.864 247.621 572.761 248.396C569.659 249.171 566.04 249.559 561.904 249.559H546.974V229.793H565.2L569.853 215.648L533.596 109.652H558.22L575.864 163.134L582.456 188.713H583.619L590.599 163.134L608.243 109.652Z" fill="#52487E"></path></g><defs><clipPath id="clip0_1325_2"><rect width="632" height="250" fill="white"></rect></clipPath></defs></svg> 